<svg viewBox="0 0 32.9863 29.6084" xmlns="http://www.w3.org/2000/svg" xmlns:xlink="http://www.w3.org/1999/xlink" width="32.986328" height="29.608398" fill="none" customFrame="#000000">
	<defs>
		<g id="pixso_custom_effect_0">
			<effect x="0.000000" y="4.000000" visibility="visible" fill="rgb(0,0,0)" fill-opacity="0.25" effectType="dropShadow" stdDeviation="4" radius="0" />
		</g>
		<filter id="filter_0" width="32.986328" height="29.608398" x="0.000000" y="0.000000" filterUnits="userSpaceOnUse" customEffect="url(#pixso_custom_effect_0)" color-interpolation-filters="sRGB">
			<feFlood flood-opacity="0" result="BackgroundImageFix" />
			<feColorMatrix result="hardAlpha" in="SourceAlpha" type="matrix" values="0 0 0 0 0 0 0 0 0 0 0 0 0 0 0 0 0 0 127 0 " />
			<feOffset dx="0.000000" dy="4.000000" in="hardAlpha" />
			<feGaussianBlur stdDeviation="1.33333337" />
			<feComposite k2="-1" k3="1" in2="hardAlpha" operator="out" />
			<feColorMatrix type="matrix" values="0 0 0 0 0 0 0 0 0 0 0 0 0 0 0 0 0 0 0.25 0 " />
			<feBlend result="effect_dropShadow_1" in2="BackgroundImageFix" mode="normal" />
			<feBlend result="shape" in="SourceGraphic" in2="effect_dropShadow_1" mode="normal" />
		</filter>
		<clipPath id="clipPath_15">
			<rect width="14.575342" height="12.604972" x="9.205566" y="4.501953" fill="rgb(255,255,255)" />
		</clipPath>
		<clipPath id="clipPath_16">
			<rect width="14.575342" height="12.604972" x="9.205566" y="4.501953" fill="rgb(255,255,255)" />
		</clipPath>
		<clipPath id="clipPath_17">
			<rect width="14.575342" height="12.604972" x="9.205566" y="4.501953" fill="rgb(255,255,255)" />
		</clipPath>
	</defs>
	<g id="Dribbble" filter="url(#filter_0)">
		<ellipse id="Ellipse 9" rx="12.493151" ry="10.804261" cx="16.4931507" cy="10.8042612" fill="rgb(255,180,0)" />
		<g id="Icons-dribbble" customFrame="url(#clipPath_15)">
			<rect id="Icons-dribbble" width="14.575342" height="12.604972" x="9.205566" y="4.501953" fill="rgb(255,255,255)" fill-opacity="0" />
			<g id="Icons-dribbble" customFrame="url(#clipPath_16)">
				<rect id="Icons-dribbble" width="14.575342" height="12.604972" x="9.205566" y="4.501953" fill="rgb(255,255,255)" fill-opacity="0" />
				<g id="Icons-dribbble" clip-path="url(#clipPath_17)" customFrame="url(#clipPath_17)">
					<rect id="Icons-dribbble" width="14.575342" height="12.604972" x="9.205566" y="4.501953" fill="rgb(255,255,255)" fill-opacity="0" />
					<path id="Vector" d="M9.20557 4.50195L23.7809 4.50195L23.7809 17.1069L9.20557 17.1069L9.20557 4.50195Z" fill-rule="nonzero" />
					<path id="Vector" d="M21.3447 10.58C21.295 9.7533 20.9625 8.95797 20.3895 8.29484C20.2149 8.45746 20.0282 8.61009 19.8307 8.75177C19.224 9.18761 18.546 9.54336 17.8187 9.80744C17.9201 9.99126 18.0131 10.1693 18.0951 10.3374L18.0951 10.3389C18.1182 10.3859 18.1405 10.4332 18.1619 10.4808C19.0813 10.3915 20.0506 10.424 20.9901 10.5338C21.1152 10.5485 21.233 10.5643 21.3447 10.58ZM15.6452 6.66722C16.237 7.38842 16.7828 8.13709 17.28 8.90986C18.0228 8.65671 18.6368 8.33738 19.1311 7.98182C19.3027 7.85951 19.4642 7.72702 19.6145 7.58529C18.7406 6.94964 17.6349 6.60175 16.493 6.60315C16.2088 6.60298 15.9251 6.62424 15.6452 6.6667L15.6452 6.66722ZM11.7882 9.75282C12.2019 9.74379 12.6151 9.72224 13.0271 9.68822C14.0228 9.61119 15.0101 9.46684 15.9798 9.2565C15.473 8.49506 14.9259 7.75425 14.3401 7.03644C13.7144 7.30451 13.1627 7.68582 12.7224 8.1545C12.2821 8.62318 11.9635 9.16828 11.7882 9.75282ZM12.7174 13.4492C12.953 13.1514 13.2627 12.8163 13.6739 12.4519C14.5569 11.6693 15.599 11.0601 16.8051 10.7239L16.8428 10.7145C16.7426 10.5233 16.6485 10.3526 16.5537 10.1919C15.4387 10.4729 14.2642 10.6483 13.0939 10.7392C12.523 10.7838 12.0111 10.8032 11.6345 10.8064C11.6335 11.7689 12.0161 12.7023 12.718 13.4492L12.7174 13.4492ZM18.3179 14.6992C18.0837 13.6778 17.7522 12.6749 17.3268 11.7008C16.111 12.0826 15.1423 12.6409 14.3935 13.3069C14.0913 13.5707 13.8232 13.8622 13.5937 14.1761C14.4311 14.7164 15.4482 15.0078 16.493 15.0065C17.1185 15.0072 17.7382 14.9033 18.3179 14.7003L18.3179 14.6992ZM19.4554 14.1346C20.4036 13.5042 21.0495 12.5935 21.2694 11.5769C21.063 11.5322 20.8012 11.4876 20.5133 11.4529C19.8733 11.3732 19.2239 11.3674 18.5821 11.4356C18.9435 12.3173 19.2353 13.2192 19.4554 14.1351L19.4554 14.1346ZM16.493 16.0569C13.1388 16.0569 10.4199 13.7055 10.4199 10.8048C10.4199 7.90409 13.1388 5.55273 16.493 5.55273C19.8471 5.55273 22.566 7.90409 22.566 10.8048C22.566 13.7055 19.8471 16.0569 16.493 16.0569Z" fill="rgb(43,43,43)" fill-rule="nonzero" />
				</g>
			</g>
		</g>
	</g>
</svg>
