<svg viewBox="0 0 14.5752 12.605" xmlns="http://www.w3.org/2000/svg" xmlns:xlink="http://www.w3.org/1999/xlink" width="14.575195" height="12.604980" fill="none" customFrame="#000000">
	<defs>
		<clipPath id="clipPath_20">
			<rect width="14.575342" height="12.604972" x="0.000000" y="0.000000" fill="rgb(255,255,255)" />
		</clipPath>
		<clipPath id="clipPath_21">
			<rect width="14.575342" height="12.604972" x="0.000000" y="0.000000" fill="rgb(255,255,255)" />
		</clipPath>
	</defs>
	<rect id="Icons-instagram" width="14.575342" height="12.604972" x="0.000000" y="0.000000" fill="rgb(255,255,255)" fill-opacity="0" />
	<g id="Icons-instagram" customFrame="url(#clipPath_20)">
		<rect id="Icons-instagram" width="14.575342" height="12.604972" x="0.000000" y="0.000000" fill="rgb(255,255,255)" fill-opacity="0" />
		<g id="Icons-instagram" clip-path="url(#clipPath_21)" customFrame="url(#clipPath_21)">
			<rect id="Icons-instagram" width="14.575342" height="12.604972" x="0.000000" y="0.000000" fill="rgb(255,255,255)" fill-opacity="0" />
			<path id="Vector" d="M0 0L14.5753 0L14.5753 12.605L0 12.605L0 0Z" fill-rule="nonzero" />
			<path id="Vector" d="M7.28741 1.05078C8.93746 1.05078 9.14334 1.05603 9.79073 1.08229C10.4375 1.10855 10.8778 1.19626 11.2653 1.32652C11.6661 1.45992 12.0038 1.64059 12.3414 1.93208C12.6502 2.19463 12.8892 2.51222 13.0416 2.86275C13.1916 3.1973 13.2937 3.5786 13.324 4.13795C13.3526 4.69782 13.3605 4.87586 13.3605 6.30285C13.3605 7.72984 13.3544 7.90789 13.324 8.46776C13.2937 9.0271 13.1916 9.40788 13.0416 9.74296C12.8896 10.0937 12.6506 10.4113 12.3414 10.6736C12.0377 10.9406 11.6705 11.1472 11.2653 11.2792C10.8784 11.4089 10.4375 11.4972 9.79073 11.5234C9.14334 11.5481 8.93746 11.5549 7.28741 11.5549C5.63736 11.5549 5.43149 11.5497 4.7841 11.5234C4.13732 11.4972 3.69702 11.4089 3.30956 11.2792C2.90408 11.1476 2.53678 10.9409 2.23341 10.6736C1.92454 10.4111 1.68558 10.0935 1.53319 9.74296C1.38258 9.4084 1.28116 9.0271 1.25079 8.46776C1.22225 7.90789 1.21436 7.72984 1.21436 6.30285C1.21436 4.87586 1.22043 4.69782 1.25079 4.13795C1.28116 3.57808 1.38258 3.19783 1.53319 2.86275C1.68516 2.512 1.92418 2.19433 2.23341 1.93208C2.53687 1.66487 2.90414 1.4582 3.30956 1.32652C3.69702 1.19626 4.13671 1.10855 4.7841 1.08229C5.43149 1.05761 5.63736 1.05078 7.28741 1.05078ZM7.28741 3.67682C6.48208 3.67682 5.70972 3.95349 5.14026 4.44596C4.5708 4.93844 4.25089 5.60638 4.25089 6.30285C4.25089 6.99932 4.5708 7.66726 5.14026 8.15974C5.70972 8.65222 6.48208 8.92889 7.28741 8.92889C8.09275 8.92889 8.8651 8.65222 9.43456 8.15974C10.004 7.66726 10.3239 6.99932 10.3239 6.30285C10.3239 5.60638 10.004 4.93844 9.43456 4.44596C8.8651 3.95349 8.09275 3.67682 7.28741 3.67682ZM11.2349 3.54552C11.2349 3.3714 11.1549 3.20441 11.0126 3.08129C10.8702 2.95817 10.6771 2.88901 10.4758 2.88901C10.2744 2.88901 10.0813 2.95817 9.93898 3.08129C9.79662 3.20441 9.71664 3.3714 9.71664 3.54552C9.71664 3.71963 9.79662 3.88662 9.93898 4.00974C10.0813 4.13286 10.2744 4.20202 10.4758 4.20202C10.6771 4.20202 10.8702 4.13286 11.0126 4.00974C11.1549 3.88662 11.2349 3.71963 11.2349 3.54552ZM7.28741 4.72723C7.77062 4.72723 8.23403 4.89323 8.5757 5.18872C8.91738 5.48421 9.10933 5.88497 9.10933 6.30285C9.10933 6.72073 8.91738 7.1215 8.5757 7.41699C8.23403 7.71247 7.77062 7.87847 7.28741 7.87847C6.80421 7.87847 6.3408 7.71247 5.99912 7.41699C5.65745 7.1215 5.4655 6.72073 5.4655 6.30285C5.4655 5.88497 5.65745 5.48421 5.99912 5.18872C6.3408 4.89323 6.80421 4.72723 7.28741 4.72723Z" fill="rgb(43,43,43)" fill-rule="nonzero" />
		</g>
	</g>
</svg>
