<svg viewBox="0 0 14.5752 12.605" xmlns="http://www.w3.org/2000/svg" xmlns:xlink="http://www.w3.org/1999/xlink" width="14.575195" height="12.604980" fill="none" customFrame="#000000">
	<defs>
		<clipPath id="clipPath_24">
			<rect width="14.575342" height="12.604972" x="0.000000" y="0.000000" fill="rgb(255,255,255)" />
		</clipPath>
		<clipPath id="clipPath_25">
			<rect width="14.575342" height="12.604972" x="0.000000" y="0.000000" fill="rgb(255,255,255)" />
		</clipPath>
	</defs>
	<rect id="Icons-Youtube" width="14.575342" height="12.604972" x="0.000000" y="0.000000" fill="rgb(255,255,255)" fill-opacity="0" />
	<g id="Icons-Youtube" customFrame="url(#clipPath_24)">
		<rect id="Icons-Youtube" width="14.575342" height="12.604972" x="0.000000" y="0.000000" fill="rgb(255,255,255)" fill-opacity="0" />
		<g id="Icons-Youtube" clip-path="url(#clipPath_25)" customFrame="url(#clipPath_25)">
			<rect id="Icons-Youtube" width="14.575342" height="12.604972" x="0.000000" y="0.000000" fill="rgb(255,255,255)" fill-opacity="0" />
			<path id="Vector" d="M0 0L14.5753 0L14.5753 12.605L0 12.605L0 0Z" fill-rule="nonzero" />
			<path id="Vector" d="M13.0829 3.41304C13.3605 4.34896 13.3605 6.30273 13.3605 6.30273C13.3605 6.30273 13.3605 8.2565 13.0829 9.19242C12.9287 9.70975 12.4775 10.1168 11.906 10.2544C10.8681 10.5044 7.28741 10.5044 7.28741 10.5044C7.28741 10.5044 3.70856 10.5044 2.66885 10.2544C2.09495 10.1147 1.64433 9.70818 1.49189 9.19242C1.21436 8.2565 1.21436 6.30273 1.21436 6.30273C1.21436 6.30273 1.21436 4.34896 1.49189 3.41304C1.64615 2.89571 2.09738 2.48868 2.66885 2.35107C3.70856 2.10107 7.28741 2.10107 7.28741 2.10107C7.28741 2.10107 10.8681 2.10107 11.906 2.35107C12.4799 2.49078 12.9305 2.89729 13.0829 3.41304ZM6.0728 8.14096L9.71664 6.30273L6.0728 4.46451L6.0728 8.14096Z" fill="rgb(43,43,43)" fill-rule="nonzero" />
		</g>
	</g>
</svg>
