<svg viewBox="0 0 14.5752 12.605" xmlns="http://www.w3.org/2000/svg" xmlns:xlink="http://www.w3.org/1999/xlink" width="14.575195" height="12.604980" fill="none" customFrame="#000000">
	<defs>
		<clipPath id="clipPath_22">
			<rect width="14.575342" height="12.604972" x="0.000000" y="0.000000" fill="rgb(255,255,255)" />
		</clipPath>
		<clipPath id="clipPath_23">
			<rect width="14.575342" height="12.604972" x="0.000000" y="0.000000" fill="rgb(255,255,255)" />
		</clipPath>
	</defs>
	<rect id="Icons-linkedin" width="14.575342" height="12.604972" x="0.000000" y="0.000000" fill="rgb(255,255,255)" fill-opacity="0" />
	<g id="Icons-linkedin" customFrame="url(#clipPath_22)">
		<rect id="Icons-linkedin" width="14.575342" height="12.604972" x="0.000000" y="0.000000" fill="rgb(255,255,255)" fill-opacity="0" />
		<g id="Icons-linkedin" clip-path="url(#clipPath_23)" customFrame="url(#clipPath_23)">
			<rect id="Icons-linkedin" width="14.575342" height="12.604972" x="0.000000" y="0.000000" fill="rgb(255,255,255)" fill-opacity="0" />
			<path id="Vector" d="M0 0L14.5753 0L14.5753 12.605L0 12.605L0 0Z" fill-rule="nonzero" />
			<path id="Vector" d="M4.21438 2.62613C4.21422 2.90472 4.0861 3.17184 3.8582 3.36874C3.6303 3.56563 3.3213 3.67616 2.99916 3.67602C2.67703 3.67588 2.36815 3.56508 2.14048 3.36799C1.91281 3.1709 1.785 2.90367 1.78516 2.62508C1.78532 2.3465 1.91344 2.07938 2.14134 1.88248C2.36924 1.68559 2.67824 1.57506 3.00038 1.5752C3.32251 1.57533 3.63139 1.68614 3.85906 1.88323C4.08673 2.08032 4.21454 2.34755 4.21438 2.62613ZM4.25082 4.45386L1.82159 4.45386L1.82159 11.0294L4.25082 11.0294L4.25082 4.45386ZM8.08899 4.45386L5.67191 4.45386L5.67191 11.0294L8.0647 11.0294L8.0647 7.57884C8.0647 5.65658 10.9615 5.47801 10.9615 7.57884L10.9615 11.0294L13.3604 11.0294L13.3604 6.86456C13.3604 3.62403 9.07283 3.74483 8.0647 5.3362L8.08899 4.45386Z" fill="rgb(43,43,43)" fill-rule="nonzero" />
		</g>
	</g>
</svg>
