<svg viewBox="0 0 24.9863 21.6084" xmlns="http://www.w3.org/2000/svg" xmlns:xlink="http://www.w3.org/1999/xlink" width="24.986328" height="21.608398" fill="none" customFrame="#000000">
	<defs>
		<clipPath id="clipPath_3">
			<rect width="14.575342" height="12.604972" x="5.205566" y="4.501953" fill="rgb(255,255,255)" />
		</clipPath>
		<clipPath id="clipPath_4">
			<rect width="14.575342" height="12.604972" x="5.205566" y="4.501953" fill="rgb(255,255,255)" />
		</clipPath>
		<clipPath id="clipPath_5">
			<rect width="14.575342" height="12.604972" x="5.205566" y="4.501953" fill="rgb(255,255,255)" />
		</clipPath>
	</defs>
	<g id="Instagram">
		<ellipse id="Ellipse 9" rx="12.493151" ry="10.804261" cx="12.4931507" cy="10.8042612" fill="rgb(255,180,0)" />
		<g id="Icons-instagram" customFrame="url(#clipPath_3)">
			<rect id="Icons-instagram" width="14.575342" height="12.604972" x="5.205566" y="4.501953" fill="rgb(255,255,255)" fill-opacity="0" />
			<g id="Icons-instagram" customFrame="url(#clipPath_4)">
				<rect id="Icons-instagram" width="14.575342" height="12.604972" x="5.205566" y="4.501953" fill="rgb(255,255,255)" fill-opacity="0" />
				<g id="Icons-instagram" clip-path="url(#clipPath_5)" customFrame="url(#clipPath_5)">
					<rect id="Icons-instagram" width="14.575342" height="12.604972" x="5.205566" y="4.501953" fill="rgb(255,255,255)" fill-opacity="0" />
					<path id="Vector" d="M5.20557 4.50195L19.7809 4.50195L19.7809 17.1069L5.20557 17.1069L5.20557 4.50195Z" fill-rule="nonzero" />
					<path id="Vector" d="M12.493 5.55273C14.143 5.55273 14.3489 5.55799 14.9963 5.58425C15.6431 5.61051 16.0834 5.69822 16.4708 5.82847C16.8717 5.96187 17.2093 6.14254 17.547 6.43403C17.8558 6.69658 18.0947 7.01417 18.2472 7.3647C18.3972 7.69926 18.4992 8.08056 18.5296 8.6399C18.5581 9.19977 18.566 9.37782 18.566 10.8048C18.566 12.2318 18.56 12.4098 18.5296 12.9697C18.4992 13.5291 18.3972 13.9098 18.2472 14.2449C18.0952 14.5956 17.8562 14.9133 17.547 15.1756C17.2433 15.4426 16.8761 15.6492 16.4708 15.7811C16.084 15.9109 15.6431 15.9991 14.9963 16.0254C14.3489 16.0501 14.143 16.0569 12.493 16.0569C10.8429 16.0569 10.6371 16.0516 9.98967 16.0254C9.34289 15.9991 8.90259 15.9109 8.51513 15.7811C8.10964 15.6496 7.74235 15.4429 7.43898 15.1756C7.13011 14.9131 6.89115 14.5955 6.73876 14.2449C6.58815 13.9104 6.48673 13.5291 6.45636 12.9697C6.42782 12.4098 6.41992 12.2318 6.41992 10.8048C6.41992 9.37782 6.42599 9.19977 6.45636 8.6399C6.48673 8.08003 6.58815 7.69978 6.73876 7.3647C6.89073 7.01396 7.12974 6.69628 7.43898 6.43403C7.74243 6.16682 8.10971 5.96015 8.51513 5.82847C8.90259 5.69822 9.34228 5.61051 9.98967 5.58425C10.6371 5.55956 10.8429 5.55273 12.493 5.55273ZM12.493 8.17877C11.6876 8.17877 10.9153 8.45544 10.3458 8.94792C9.77637 9.4404 9.45645 10.1083 9.45645 10.8048C9.45645 11.5013 9.77637 12.1692 10.3458 12.6617C10.9153 13.1542 11.6876 13.4308 12.493 13.4308C13.2983 13.4308 14.0707 13.1542 14.6401 12.6617C15.2096 12.1692 15.5295 11.5013 15.5295 10.8048C15.5295 10.1083 15.2096 9.4404 14.6401 8.94792C14.0707 8.45544 13.2983 8.17877 12.493 8.17877ZM16.4405 8.04747C16.4405 7.87335 16.3605 7.70637 16.2181 7.58325C16.0758 7.46013 15.8827 7.39096 15.6813 7.39096C15.48 7.39096 15.2869 7.46013 15.1445 7.58325C15.0022 7.70637 14.9222 7.87335 14.9222 8.04747C14.9222 8.22159 15.0022 8.38857 15.1445 8.51169C15.2869 8.63481 15.48 8.70398 15.6813 8.70398C15.8827 8.70398 16.0758 8.63481 16.2181 8.51169C16.3605 8.38857 16.4405 8.22159 16.4405 8.04747ZM12.493 9.22919C12.9762 9.22919 13.4396 9.39519 13.7813 9.69067C14.1229 9.98616 14.3149 10.3869 14.3149 10.8048C14.3149 11.2227 14.1229 11.6235 13.7813 11.9189C13.4396 12.2144 12.9762 12.3804 12.493 12.3804C12.0098 12.3804 11.5464 12.2144 11.2047 11.9189C10.863 11.6235 10.6711 11.2227 10.6711 10.8048C10.6711 10.3869 10.863 9.98616 11.2047 9.69067C11.5464 9.39519 12.0098 9.22919 12.493 9.22919Z" fill="rgb(43,43,43)" fill-rule="nonzero" />
				</g>
			</g>
		</g>
	</g>
</svg>
