<svg viewBox="0 0 24.9863 21.6084" xmlns="http://www.w3.org/2000/svg" xmlns:xlink="http://www.w3.org/1999/xlink" width="24.986328" height="21.608398" fill="none" customFrame="#000000">
	<defs>
		<clipPath id="clipPath_6">
			<rect width="14.575342" height="12.604972" x="5.205566" y="4.501953" fill="rgb(255,255,255)" />
		</clipPath>
		<clipPath id="clipPath_7">
			<rect width="14.575342" height="12.604972" x="5.205566" y="4.501953" fill="rgb(255,255,255)" />
		</clipPath>
		<clipPath id="clipPath_8">
			<rect width="14.575342" height="12.604972" x="5.205566" y="4.501953" fill="rgb(255,255,255)" />
		</clipPath>
	</defs>
	<g id="Twitter">
		<ellipse id="Ellipse 9" rx="12.493151" ry="10.804261" cx="12.4931507" cy="10.8042612" fill="rgb(255,180,0)" />
		<g id="Icons-twitter" customFrame="url(#clipPath_6)">
			<rect id="Icons-twitter" width="14.575342" height="12.604972" x="5.205566" y="4.501953" fill="rgb(255,255,255)" fill-opacity="0" />
			<g id="Icons-twitter" customFrame="url(#clipPath_7)">
				<rect id="Icons-twitter" width="14.575342" height="12.604972" x="5.205566" y="4.501953" fill="rgb(255,255,255)" fill-opacity="0" />
				<g id="Icons-twitter" clip-path="url(#clipPath_8)" customFrame="url(#clipPath_8)">
					<rect id="Icons-twitter" width="14.575342" height="12.604972" x="5.205566" y="4.501953" fill="rgb(255,255,255)" fill-opacity="0" />
					<path id="Vector" d="M5.20557 4.50195L19.7809 4.50195L19.7809 17.1069L5.20557 17.1069L5.20557 4.50195Z" fill-rule="nonzero" />
					<path id="Vector" d="M18.6649 7.47277C18.2012 7.65013 17.7095 7.76661 17.2061 7.81836C17.7367 7.5439 18.1339 7.11196 18.3235 6.60303C17.8256 6.85933 17.2796 7.03895 16.7105 7.13611C16.3283 6.78243 15.8217 6.54786 15.2694 6.46888C14.7171 6.3899 14.1501 6.47093 13.6566 6.69938C13.163 6.92782 12.7706 7.29088 12.5402 7.73212C12.3099 8.17335 12.2546 8.66803 12.3829 9.13925C11.373 9.09548 10.385 8.86852 9.48317 8.47312C8.58129 8.07771 7.78565 7.52269 7.1479 6.8441C6.92216 7.17942 6.80353 7.5606 6.80416 7.94861C6.80416 8.71016 7.25236 9.38295 7.93375 9.77686C7.53051 9.76588 7.13614 9.6717 6.78352 9.50217L6.78352 9.52948C6.78364 10.0367 6.98658 10.5282 7.35794 10.9208C7.72929 11.3134 8.2462 11.5828 8.82103 11.6834C8.44669 11.7711 8.05419 11.784 7.67322 11.7212C7.83529 12.1577 8.15117 12.5396 8.57664 12.8131C9.00211 13.0867 9.51586 13.2384 10.046 13.2469C9.51911 13.6047 8.91588 13.8693 8.27074 14.0253C7.6256 14.1814 6.95121 14.226 6.28613 14.1566C7.44712 14.8023 8.79862 15.1451 10.179 15.1439C14.851 15.1439 17.4059 11.7968 17.4059 8.89398C17.4059 8.79945 17.4029 8.70386 17.398 8.61037C17.8953 8.29954 18.3245 7.91448 18.6655 7.4733L18.6649 7.47277Z" fill="rgb(43,43,43)" fill-rule="nonzero" />
				</g>
			</g>
		</g>
	</g>
</svg>
