<svg viewBox="0 0 24.9863 21.6084" xmlns="http://www.w3.org/2000/svg" xmlns:xlink="http://www.w3.org/1999/xlink" width="24.986328" height="21.608398" fill="none" customFrame="#000000">
	<defs>
		<clipPath id="clipPath_12">
			<rect width="14.575342" height="12.604972" x="5.205078" y="4.501953" fill="rgb(255,255,255)" />
		</clipPath>
		<clipPath id="clipPath_13">
			<rect width="14.575342" height="12.604972" x="5.205078" y="4.501953" fill="rgb(255,255,255)" />
		</clipPath>
		<clipPath id="clipPath_14">
			<rect width="14.575342" height="12.604972" x="5.205078" y="4.501953" fill="rgb(255,255,255)" />
		</clipPath>
	</defs>
	<g id="Youtube">
		<ellipse id="Ellipse 9" rx="12.493151" ry="10.804261" cx="12.4931507" cy="10.8042612" fill="rgb(255,180,0)" />
		<g id="Icons-Youtube" customFrame="url(#clipPath_12)">
			<rect id="Icons-Youtube" width="14.575342" height="12.604972" x="5.205078" y="4.501953" fill="rgb(255,255,255)" fill-opacity="0" />
			<g id="Icons-Youtube" customFrame="url(#clipPath_13)">
				<rect id="Icons-Youtube" width="14.575342" height="12.604972" x="5.205078" y="4.501953" fill="rgb(255,255,255)" fill-opacity="0" />
				<g id="Icons-Youtube" clip-path="url(#clipPath_14)" customFrame="url(#clipPath_14)">
					<rect id="Icons-Youtube" width="14.575342" height="12.604972" x="5.205078" y="4.501953" fill="rgb(255,255,255)" fill-opacity="0" />
					<path id="Vector" d="M5.20508 4.50195L19.7804 4.50195L19.7804 17.1069L5.20508 17.1069L5.20508 4.50195Z" fill-rule="nonzero" />
					<path id="Vector" d="M18.288 7.915C18.5656 8.85091 18.5656 10.8047 18.5656 10.8047C18.5656 10.8047 18.5656 12.7585 18.288 13.6944C18.1338 14.2117 17.6825 14.6187 17.1111 14.7563C16.0732 15.0063 12.4925 15.0063 12.4925 15.0063C12.4925 15.0063 8.91364 15.0063 7.87393 14.7563C7.30003 14.6166 6.84941 14.2101 6.69697 13.6944C6.41943 12.7585 6.41943 10.8047 6.41943 10.8047C6.41943 10.8047 6.41943 8.85091 6.69697 7.915C6.85123 7.39767 7.30246 6.99063 7.87393 6.85303C8.91364 6.60303 12.4925 6.60303 12.4925 6.60303C12.4925 6.60303 16.0732 6.60303 17.1111 6.85303C17.685 6.99273 18.1356 7.39924 18.288 7.915ZM11.2779 12.6429L14.9217 10.8047L11.2779 8.96646L11.2779 12.6429Z" fill="rgb(43,43,43)" fill-rule="nonzero" />
				</g>
			</g>
		</g>
	</g>
</svg>
